<svg width="76" height="75" viewBox="0 0 76 75" fill="none" xmlns="http://www.w3.org/2000/svg">
<circle cx="38" cy="37.5" r="37.5" fill="#E74C3C"/>
<path d="M36.2422 39.6958C35.0151 38.428 35.0151 36.3711 36.2422 35.104L50.1357 20.9508C51.3622 19.6831 53.3532 19.6831 54.5797 20.9508C55.8068 22.2179 55.8068 24.2748 54.5797 25.5426L43.4702 36.8202C43.1611 37.1402 43.1611 37.6596 43.4702 37.9802L54.5797 49.4574C55.8068 50.7245 55.8068 52.7815 54.5797 54.0492C53.9904 54.658 53.1909 55 52.3577 55C51.5244 55 50.7249 54.658 50.1357 54.0492L36.2422 39.6958Z" fill="white"/>
<path d="M39.7578 35.3042C40.9849 36.572 40.9849 38.6289 39.7578 39.896L25.8643 54.0492C24.6378 55.3169 22.6468 55.3169 21.4203 54.0492C20.1932 52.7821 20.1932 50.7252 21.4203 49.4574L32.5298 38.1798C32.8389 37.8598 32.8389 37.3404 32.5298 37.0198L21.4203 25.5426C20.1932 24.2755 20.1932 22.2185 21.4203 20.9508C22.0096 20.342 22.8091 20 23.6423 20C24.4756 20 25.2751 20.342 25.8643 20.9508L39.7578 35.3042Z" fill="white"/>
</svg>
